<?xml version="1.0"?><svg xmlns="http://www.w3.org/2000/svg"  viewBox="0 0 100 100" width="70px">    <path d="M 65.486328 23.142578 C 63.286861 23.051866 61.064437 23.905094 59.484375 25.667969 C 59.408375 25.752969 59.342484 25.842688 59.271484 25.929688 C 58.583484 25.722687 57.883156 25.5465 57.160156 25.4375 C 53.197156 24.8415 49.241578 25.821219 46.017578 28.199219 C 42.792578 30.577219 40.688844 34.067297 40.089844 38.029297 C 39.590844 41.333297 40.205828 44.629859 41.798828 47.505859 L 24.232422 67.085938 C 24.059422 67.277937 23.968516 67.530062 23.978516 67.789062 L 24.169922 73.304688 C 24.188922 73.842687 24.628969 74.269531 25.167969 74.269531 L 31.125 74.269531 C 31.41 74.269531 31.680141 74.148547 31.869141 73.935547 L 32.066406 73.714844 C 32.310406 73.442844 32.385672 73.059844 32.263672 72.714844 L 31.699219 71.128906 L 32.888672 71.035156 C 33.183672 71.012156 33.452047 70.859141 33.623047 70.619141 C 33.795047 70.379141 33.851344 70.075062 33.777344 69.789062 L 33.558594 68.9375 L 34.863281 68.832031 C 35.157281 68.809031 35.425656 68.657969 35.597656 68.417969 C 35.768656 68.177969 35.825953 67.871937 35.751953 67.585938 L 35.564453 66.861328 L 37.699219 66.912109 C 37.982219 66.913109 38.271797 66.798078 38.466797 66.580078 L 49.521484 54.255859 C 50.530484 54.642859 51.583734 54.934609 52.677734 55.099609 C 53.436734 55.213609 54.195219 55.269531 54.949219 55.269531 C 58.129219 55.269531 61.214312 54.260891 63.820312 52.337891 C 67.048313 49.959891 69.153953 46.469813 69.751953 42.507812 C 70.032953 40.648812 69.952641 38.791766 69.556641 37.009766 C 70.027641 36.677766 70.461656 36.294281 70.847656 35.863281 C 73.658656 32.730281 73.396672 27.893984 70.263672 25.083984 C 68.892984 23.854609 67.197025 23.213132 65.486328 23.142578 z M 65.466797 24.138672 C 66.997418 24.208248 68.441578 24.793 69.595703 25.828125 C 70.914703 27.012125 71.693063 28.63825 71.789062 30.40625 C 71.885063 32.17625 71.286562 33.875312 70.101562 35.195312 C 69.851562 35.475313 69.571344 35.725984 69.277344 35.958984 C 68.787344 34.329984 68.030234 32.775234 66.990234 31.365234 C 65.263234 29.024234 62.946969 27.282531 60.292969 26.269531 C 61.470969 24.991531 63.067641 24.235625 64.806641 24.140625 C 65.028266 24.129375 65.248137 24.128732 65.466797 24.138672 z M 54.892578 27.265625 C 55.545578 27.265625 56.203328 27.315062 56.861328 27.414062 C 57.309328 27.482063 57.750594 27.573547 58.183594 27.685547 C 57.782594 28.596547 57.570969 29.566063 57.542969 30.539062 C 54.634969 29.776062 51.420422 30.235187 48.732422 31.992188 C 48.602422 32.077187 48.518859 32.218047 48.505859 32.373047 C 48.493859 32.528047 48.556875 32.680203 48.671875 32.783203 L 63.384766 45.984375 C 63.477766 46.067375 63.59675 46.111328 63.71875 46.111328 C 63.74875 46.111328 63.780547 46.109516 63.810547 46.103516 C 63.962547 46.075516 64.093063 45.976891 64.164062 45.837891 C 66.411062 41.418891 65.474812 36.082375 61.882812 32.859375 C 60.887813 31.967375 59.750969 31.302516 58.542969 30.853516 C 58.528969 29.873516 58.725484 28.889516 59.146484 27.978516 C 61.627484 28.825516 63.793813 30.395781 65.382812 32.550781 C 67.444812 35.344781 68.293391 38.774031 67.775391 42.207031 C 67.256391 45.642031 65.431719 48.667516 62.636719 50.728516 C 59.841719 52.789516 56.413469 53.640094 52.980469 53.121094 C 49.547469 52.602094 46.521937 50.779375 44.460938 47.984375 C 42.398938 45.190375 41.548406 41.759172 42.066406 38.326172 C 42.585406 34.893172 44.410078 31.867641 47.205078 29.806641 C 49.464078 28.140641 52.137578 27.265625 54.892578 27.265625 z M 54.667969 31.181641 C 55.65832 31.169811 56.642891 31.306641 57.587891 31.587891 C 57.783891 33.395891 58.611359 35.141266 60.068359 36.447266 C 61.360359 37.606266 62.566594 38.170312 64.058594 38.320312 C 64.599594 40.412312 64.457687 42.692016 63.554688 44.791016 L 49.839844 32.488281 C 51.352344 31.631406 53.017383 31.201357 54.667969 31.181641 z M 58.650391 31.964844 C 59.573391 32.362844 60.441844 32.909516 61.214844 33.603516 C 62.350844 34.623516 63.18975 35.879 63.71875 37.25 C 62.64475 37.061 61.735375 36.599172 60.734375 35.701172 C 59.600375 34.684172 58.905391 33.359844 58.650391 31.964844 z M 42.914062 49.255859 C 44.199062 50.973859 45.809813 52.358094 47.632812 53.371094 L 37.289062 64.900391 L 34.292969 64.832031 C 33.983969 64.824031 33.681328 64.964938 33.486328 65.210938 C 33.291328 65.456937 33.222781 65.778031 33.300781 66.082031 L 33.519531 66.933594 L 32.216797 67.037109 C 31.922797 67.060109 31.653422 67.213125 31.482422 67.453125 C 31.310422 67.693125 31.252172 67.997203 31.326172 68.283203 L 31.546875 69.134766 L 30.242188 69.238281 C 29.931188 69.262281 29.651422 69.430406 29.482422 69.691406 C 29.312422 69.952406 29.274906 70.277313 29.378906 70.570312 L 29.982422 72.269531 L 26.132812 72.269531 L 26.115234 71.759766 L 37.916016 58.605469 C 38.101016 58.399469 38.083906 58.085391 37.878906 57.900391 C 37.673906 57.716391 37.356875 57.7315 37.171875 57.9375 L 26.064453 70.318359 L 25.988281 68.123047 L 42.914062 49.255859 z M 41.509766 53.320312 C 41.382141 53.327312 41.258016 53.381375 41.166016 53.484375 L 40.984375 53.6875 C 40.800375 53.8935 40.819391 54.207578 41.025391 54.392578 C 41.121391 54.477578 41.238422 54.519531 41.357422 54.519531 C 41.495422 54.519531 41.631469 54.463516 41.730469 54.353516 L 41.912109 54.150391 C 42.096109 53.944391 42.077094 53.630312 41.871094 53.445312 C 41.767594 53.354312 41.637391 53.313313 41.509766 53.320312 z M 40.107422 54.886719 C 39.979672 54.893469 39.854219 54.947781 39.761719 55.050781 L 38.509766 56.447266 C 38.324766 56.653266 38.343828 56.967344 38.548828 57.152344 C 38.644828 57.238344 38.763813 57.28125 38.882812 57.28125 C 39.019813 57.28125 39.154906 57.225234 39.253906 57.115234 L 40.505859 55.71875 C 40.690859 55.51275 40.67375 55.198672 40.46875 55.013672 C 40.36625 54.921672 40.235172 54.879969 40.107422 54.886719 z M 46.410156 65.060547 C 46.134156 65.060547 45.910156 65.284547 45.910156 65.560547 L 45.910156 68.853516 L 43.744141 66.6875 C 43.549141 66.4925 43.232109 66.4925 43.037109 66.6875 C 42.842109 66.8825 42.842109 67.199531 43.037109 67.394531 L 45.203125 69.560547 L 42.410156 69.560547 C 42.134156 69.560547 41.910156 69.784547 41.910156 70.060547 C 41.910156 70.336547 42.134156 70.560547 42.410156 70.560547 L 45.203125 70.560547 L 43.037109 72.724609 C 42.842109 72.919609 42.842109 73.236641 43.037109 73.431641 C 43.135109 73.529641 43.264578 73.578125 43.392578 73.578125 C 43.520578 73.578125 43.648094 73.528641 43.746094 73.431641 L 45.912109 71.265625 L 45.912109 74.560547 C 45.912109 74.836547 46.136109 75.060547 46.412109 75.060547 C 46.688109 75.060547 46.912109 74.836547 46.912109 74.560547 L 46.912109 71.267578 L 49.076172 73.431641 C 49.174172 73.529641 49.303641 73.578125 49.431641 73.578125 C 49.559641 73.578125 49.687156 73.528641 49.785156 73.431641 C 49.980156 73.236641 49.980156 72.919609 49.785156 72.724609 L 47.619141 70.560547 L 50.412109 70.560547 C 50.688109 70.560547 50.912109 70.336547 50.912109 70.060547 C 50.912109 69.784547 50.687156 69.560547 50.410156 69.560547 L 47.617188 69.560547 L 49.783203 67.394531 C 49.978203 67.199531 49.978203 66.8825 49.783203 66.6875 C 49.588203 66.4925 49.271172 66.4925 49.076172 66.6875 L 46.910156 68.851562 L 46.910156 65.560547 C 46.910156 65.284547 46.686156 65.060547 46.410156 65.060547 z M 58.369141 65.060547 C 58.093141 65.060547 57.869141 65.284547 57.869141 65.560547 L 57.869141 68.851562 L 55.705078 66.6875 C 55.510078 66.4925 55.193047 66.4925 54.998047 66.6875 C 54.803047 66.8825 54.803047 67.199531 54.998047 67.394531 L 57.164062 69.560547 L 54.369141 69.560547 C 54.093141 69.560547 53.869141 69.784547 53.869141 70.060547 C 53.869141 70.336547 54.093141 70.560547 54.369141 70.560547 L 57.162109 70.560547 L 54.998047 72.724609 C 54.803047 72.919609 54.803047 73.236641 54.998047 73.431641 C 55.096047 73.529641 55.223563 73.578125 55.351562 73.578125 C 55.479563 73.578125 55.607078 73.528641 55.705078 73.431641 L 57.871094 71.267578 L 57.871094 74.560547 C 57.871094 74.836547 58.095094 75.060547 58.371094 75.060547 C 58.647094 75.060547 58.871094 74.836547 58.871094 74.560547 L 58.871094 71.265625 L 61.037109 73.431641 C 61.135109 73.529641 61.262625 73.578125 61.390625 73.578125 C 61.518625 73.578125 61.646141 73.528641 61.744141 73.431641 C 61.939141 73.236641 61.939141 72.919609 61.744141 72.724609 L 59.580078 70.560547 L 62.371094 70.560547 C 62.647094 70.560547 62.871094 70.336547 62.871094 70.060547 C 62.871094 69.784547 62.645141 69.560547 62.369141 69.560547 L 59.576172 69.560547 L 61.742188 67.394531 C 61.937188 67.199531 61.937187 66.8825 61.742188 66.6875 C 61.547187 66.4925 61.230156 66.4925 61.035156 66.6875 L 58.869141 68.853516 L 58.869141 65.560547 C 58.869141 65.284547 58.645141 65.060547 58.369141 65.060547 z M 69.660156 65.060547 C 69.384156 65.060547 69.160156 65.284547 69.160156 65.560547 L 69.160156 68.853516 L 66.994141 66.6875 C 66.799141 66.4925 66.482109 66.4925 66.287109 66.6875 C 66.092109 66.8825 66.092109 67.199531 66.287109 67.394531 L 68.453125 69.560547 L 65.160156 69.560547 C 64.884156 69.560547 64.660156 69.784547 64.660156 70.060547 C 64.660156 70.336547 64.884156 70.560547 65.160156 70.560547 L 68.453125 70.560547 L 66.287109 72.724609 C 66.092109 72.919609 66.092109 73.236641 66.287109 73.431641 C 66.385109 73.529641 66.514578 73.578125 66.642578 73.578125 C 66.770578 73.578125 66.898094 73.528641 66.996094 73.431641 L 69.162109 71.265625 L 69.162109 74.560547 C 69.162109 74.836547 69.386109 75.060547 69.662109 75.060547 C 69.938109 75.060547 70.162109 74.836547 70.162109 74.560547 L 70.162109 71.267578 L 72.326172 73.431641 C 72.424172 73.529641 72.553641 73.578125 72.681641 73.578125 C 72.809641 73.578125 72.937156 73.528641 73.035156 73.431641 C 73.230156 73.236641 73.230156 72.919609 73.035156 72.724609 L 70.869141 70.560547 L 74.162109 70.560547 C 74.438109 70.560547 74.662109 70.336547 74.662109 70.060547 C 74.662109 69.784547 74.437156 69.560547 74.160156 69.560547 L 70.867188 69.560547 L 73.033203 67.394531 C 73.228203 67.199531 73.228203 66.8825 73.033203 66.6875 C 72.838203 66.4925 72.521172 66.4925 72.326172 66.6875 L 70.160156 68.851562 L 70.160156 65.560547 C 70.160156 65.284547 69.936156 65.060547 69.660156 65.060547 z"/></svg>